<svg width="24" height="24" viewBox="0 0 24 24" fill="none" xmlns="http://www.w3.org/2000/svg">
<mask id="mask0_2309_3531" style="mask-type:luminance" maskUnits="userSpaceOnUse" x="3" y="3" width="18" height="18">
<path fill-rule="evenodd" clip-rule="evenodd" d="M15.9996 17V4.00002C15.9996 3.44802 16.4466 3.00002 16.9996 3.00002C17.5526 3.00002 17.9996 3.44802 17.9996 4.00002V17.082L19.2096 15.524C19.5486 15.088 20.1776 15.009 20.6126 15.348C21.0496 15.687 21.1286 16.316 20.7896 16.751L17.7896 20.613C17.5986 20.86 17.3036 21.002 16.9906 21C16.6796 20.998 16.3866 20.85 16.1996 20.6L13.1996 16.6C13.0646 16.42 12.9996 16.209 12.9996 16.001C12.9996 15.697 13.1376 15.396 13.3996 15.2C13.8416 14.869 14.4686 14.958 14.7996 15.4L15.9996 17ZM8.99962 7.00002V20C8.99962 20.552 8.55262 21 7.99962 21C7.44662 21 6.99962 20.552 6.99962 20V6.91802L5.78962 8.47602C5.45062 8.91202 4.82162 8.99102 4.38662 8.65202C4.13262 8.45502 3.99961 8.16002 3.99961 7.86202C3.99961 7.64702 4.06762 7.43102 4.20962 7.24902L7.20962 3.38702C7.40062 3.14002 7.69562 2.99802 8.00862 3.00002C8.31962 3.00202 8.61262 3.15002 8.79962 3.40002L11.7996 7.40002C12.1306 7.84302 12.0416 8.46902 11.5996 8.80002C11.1576 9.13102 10.5306 9.04202 10.1996 8.60002L8.99962 7.00002Z" fill="white"/>
</mask>
<g mask="url(#mask0_2309_3531)">
<rect x="24" width="24" height="24" transform="rotate(90 24 0)" fill="white"/>
</g>
</svg>
